<svg xmlns="http://www.w3.org/2000/svg" xmlns:xlink="http://www.w3.org/1999/xlink" width="527" height="527" x="0" y="0" enable-background="new -7.5 -7.5 527 527" version="1.1" viewBox="-7.5 -7.5 527 527" xml:space="preserve"><g id="Layer_1"><g><path fill="#59EA94" d="M293.642,220.033c-7.431,0-13.528,6.099-13.528,13.599s6.098,13.599,13.528,13.599 c7.5,0,13.528-6.099,13.599-13.599C307.24,226.131,301.142,220.033,293.642,220.033z"/><path fill="#59EA94" d="M166.418,205.804c-15.211,0-27.548,12.477-27.548,27.758c0,15.351,12.337,27.757,27.548,27.757 c15.21,0,27.547-12.477,27.547-27.757C193.965,218.281,181.628,205.804,166.418,205.804z"/><path fill="#59EA94" d="M323.222,249.753c-7.431,0-13.528,6.028-13.528,13.598c0,7.5,6.098,13.599,13.528,13.599 c7.5,0,13.599-6.028,13.599-13.599C336.82,255.852,330.722,249.753,323.222,249.753z"/><path fill="#59EA94" d="M352.872,220.033c-7.431,0-13.528,6.099-13.528,13.599s6.028,13.599,13.528,13.599 s13.528-6.099,13.528-13.599S360.302,220.033,352.872,220.033z"/><path fill="#59EA94" d="M323.222,190.242c-7.431,0-13.528,6.099-13.528,13.599c0,7.5,6.098,13.599,13.528,13.599 c7.5,0,13.599-6.099,13.599-13.599C336.82,196.341,330.722,190.242,323.222,190.242z"/><path fill="#59EA94" d="M256-7C110.749-7-7,110.749-7,256s117.749,263,263,263s263-117.749,263-263S401.251-7,256-7z M398.014,366.112c-17.524,8.341-37.291-10.796-56.146-34.418c-16.473-19.205-22.991-19.696-85.867-19.696 c-62.946,0-70.586,1.191-85.867,19.696c-18.855,23.622-38.623,42.759-56.146,34.418c-17.524-8.342-20.258-53.133-5.397-115.167 c14.86-61.964,30.561-94.979,62.034-104.302c31.473-9.393,41.356,8.341,85.376,8.341c44.02,0,53.904-17.664,85.376-8.341 c31.403,9.393,47.175,42.338,62.035,104.302C418.271,312.979,415.537,357.771,398.014,366.112z"/></g></g><g id="Layer_2" display="none"><path d="M351.376,314.643c-31.472-9.322-41.356,8.342-85.376,8.342c-44.02,0-53.903-17.734-85.376-8.342 c-31.473,9.323-47.174,42.338-62.034,104.303c-14.861,62.034-12.127,106.825,5.397,115.167 c17.524,8.341,37.291-10.796,56.146-34.418c15.281-18.505,22.921-19.696,85.867-19.696c62.876,0,69.395,0.491,85.867,19.696 c18.855,23.622,38.622,42.759,56.146,34.418c17.523-8.342,20.258-53.133,5.397-115.167 C398.551,356.98,382.779,324.035,351.376,314.643z M176.418,429.319c-15.211,0-27.548-12.407-27.548-27.757 c0-15.281,12.337-27.759,27.548-27.759c15.21,0,27.547,12.478,27.547,27.759C203.965,416.842,191.628,429.319,176.418,429.319z M303.642,415.23c-7.431,0-13.528-6.1-13.528-13.6s6.098-13.598,13.528-13.598c7.5,0,13.599,6.098,13.599,13.598 C317.17,409.131,311.142,415.23,303.642,415.23z M333.222,444.95c-7.431,0-13.528-6.099-13.528-13.599 c0-7.57,6.098-13.598,13.528-13.598c7.5,0,13.599,6.098,13.599,13.598C346.82,438.922,340.722,444.95,333.222,444.95z M333.222,385.439c-7.431,0-13.528-6.098-13.528-13.598c0-7.501,6.098-13.6,13.528-13.6c7.5,0,13.599,6.099,13.599,13.6 C346.82,379.342,340.722,385.439,333.222,385.439z M362.872,415.23c-7.5,0-13.528-6.1-13.528-13.6s6.098-13.598,13.528-13.598 c7.43,0,13.528,6.098,13.528,13.598S370.372,415.23,362.872,415.23z" display="inline"/></g></svg>